<svg width="390" height="391" viewBox="0 0 390 391" fill="none" xmlns="http://www.w3.org/2000/svg">
<path d="M194.213 0.5L179.873 43.9695H207.657L194.213 0.5Z" fill="#A37E2C"/>
<path d="M389.263 195.671L345.341 182.022V209.495L389.263 195.671Z" fill="#A37E2C"/>
<path d="M194.29 390.733L209.496 345.974H179.083L194.29 390.733Z" fill="#A37E2C"/>
<path d="M0.333313 195.342L42.7971 182.431V209.401L0.333313 195.342Z" fill="#A37E2C"/>
<path fill-rule="evenodd" clip-rule="evenodd" d="M194.132 347.118C278.269 347.118 346.476 278.911 346.476 194.774C346.476 110.637 278.269 42.4303 194.132 42.4303C109.995 42.4303 41.7889 110.637 41.7889 194.774C41.7889 278.911 109.995 347.118 194.132 347.118ZM194.132 334.004C271.027 334.004 333.363 271.669 333.363 194.774C333.363 117.879 271.027 55.5434 194.132 55.5434C117.238 55.5434 54.902 117.879 54.902 194.774C54.902 271.669 117.238 334.004 194.132 334.004Z" fill="#A37E2C"/>
<path d="M220.67 141.95L269.244 190.524V299.174L252.448 307.006V197.481L220.67 165.704V319.566L203.874 321.366V145.43C203.874 145.43 203.981 145.429 212.272 145.429L203.874 145.43V124.268L175.048 149.883V319.787L158.251 318.149V202.701L137.142 223.811V306.474L120.345 299.174V216.854L158.251 178.947V142.337L220.67 86.874V141.95Z" fill="#A37E2C"/>
<circle cx="194.797" cy="195.616" r="126.131" stroke="#A37E2C" stroke-width="3.87612"/>
</svg>
