<svg width="209" height="37" viewBox="0 0 209 37" fill="none" xmlns="http://www.w3.org/2000/svg">
<path d="M18.5171 0.5L17.184 4.54092H19.7669L18.5171 0.5Z" fill="white"/>
<path d="M36.6489 18.643L32.5659 17.3742V19.9281L36.6489 18.643Z" fill="white"/>
<path d="M18.5243 36.7761L19.9379 32.6152H17.1106L18.5243 36.7761Z" fill="white"/>
<path d="M0.49408 18.6125L4.44151 17.4123V19.9194L0.49408 18.6125Z" fill="white"/>
<path fill-rule="evenodd" clip-rule="evenodd" d="M18.5096 32.7215C26.331 32.7215 32.6715 26.3811 32.6715 18.5597C32.6715 10.7383 26.331 4.39784 18.5096 4.39784C10.6883 4.39784 4.34778 10.7383 4.34778 18.5597C4.34778 26.3811 10.6883 32.7215 18.5096 32.7215ZM18.5096 31.5025C25.6578 31.5025 31.4525 25.7078 31.4525 18.5597C31.4525 11.4115 25.6578 5.61683 18.5096 5.61683C11.3615 5.61683 5.56678 11.4115 5.56678 18.5597C5.56678 25.7078 11.3615 31.5025 18.5096 31.5025Z" fill="white"/>
<path d="M20.9766 13.6491L25.492 18.1645V28.2647L23.9306 28.9927V18.8113L20.9766 15.8573V30.1603L19.4152 30.3276V13.9726C19.4152 13.9726 19.4252 13.9725 20.1959 13.9725L19.4152 13.9726V12.0054L16.7355 14.3865V30.1808L15.1741 30.0285V19.2965L13.2118 21.2589V28.9433L11.6504 28.2647V20.6122L15.1741 17.0884V13.6851L20.9766 8.52926V13.6491Z" fill="white"/>
<path d="M30.1167 18.6378C30.1166 12.2618 24.9473 7.09323 18.5713 7.09323C12.1953 7.09331 7.02676 12.2619 7.02669 18.6378C7.02669 25.0139 12.1953 30.1832 18.5713 30.1832V30.5429L18.2645 30.5397C11.9334 30.3795 6.83074 25.2764 6.67024 18.9454L6.66617 18.6378C6.66625 12.0628 11.9963 6.73279 18.5713 6.73272L18.8789 6.73679C25.3118 6.89987 30.4763 12.1656 30.4764 18.6378L30.4731 18.9454C30.3101 25.3784 25.0436 30.5429 18.5713 30.5429V30.1832C24.9474 30.1832 30.1167 25.0139 30.1167 18.6378Z" fill="white"/>
<path d="M45.1848 25.3885C45.1848 25.8552 45.3115 26.1818 45.5648 26.3685C45.8315 26.5552 46.1715 26.6485 46.5848 26.6485V26.9485H44.9448H44.0248H42.3648V26.6485C42.7781 26.6485 43.1181 26.5552 43.3848 26.3685C43.6648 26.1818 43.8048 25.8552 43.8048 25.3885V15.7685C43.8048 15.2885 43.6648 14.9618 43.3848 14.7885C43.1181 14.6018 42.7781 14.5085 42.3648 14.5085V14.2085H44.0248H44.9448H46.5848V14.5085C46.1715 14.5085 45.8315 14.6018 45.5648 14.7885C45.3115 14.9618 45.1848 15.2885 45.1848 15.7685V25.3885ZM50.7614 25.3885C50.7614 25.8552 50.9014 26.1818 51.1814 26.3685C51.4614 26.5552 51.828 26.6485 52.2814 26.6485V26.9485H50.5014H50.0214H48.4414V26.6485C48.828 26.6485 49.148 26.5552 49.4014 26.3685C49.668 26.1818 49.8014 25.8552 49.8014 25.3885V15.7685C49.8014 15.2885 49.668 14.9618 49.4014 14.7885C49.148 14.6018 48.828 14.5085 48.4414 14.5085V14.2085H50.0214H50.7614V25.3885ZM59.1814 25.3885C59.1814 25.8552 59.308 26.1818 59.5614 26.3685C59.828 26.5552 60.1547 26.6485 60.5414 26.6485V26.9485H58.9614H58.2214V15.7685C58.2214 15.2885 58.0614 14.9618 57.7414 14.7885C57.4214 14.6018 57.008 14.5085 56.5014 14.5085V14.2085H58.5014H58.9614H60.5414V14.5085C60.1547 14.5085 59.828 14.6018 59.5614 14.7885C59.308 14.9618 59.1814 15.2885 59.1814 15.7685V25.3885ZM57.3214 26.9485L50.1014 14.2085H51.6014L58.8214 26.9485H57.3214ZM63.0198 15.7085C62.8731 15.2552 62.6265 14.9418 62.2798 14.7685C61.9465 14.5952 61.5798 14.5085 61.1798 14.5085V14.2085H62.7598H63.9398L68.0398 26.9485H66.6598L63.0198 15.7085ZM67.6598 26.9485C67.6598 26.4818 67.6931 25.9152 67.7598 25.2485C67.8398 24.5685 67.9731 23.9618 68.1598 23.4285L70.7598 15.6885C70.8665 15.3685 70.8531 15.1218 70.7198 14.9485C70.5865 14.7752 70.3731 14.6618 70.0798 14.6085C69.7865 14.5418 69.4265 14.5085 68.9998 14.5085V14.2085H71.6398H71.9998H73.5598V14.5085C73.1731 14.5085 72.8065 14.5952 72.4598 14.7685C72.1265 14.9285 71.8865 15.2352 71.7398 15.6885L68.0798 26.9485H67.6598ZM84.1798 16.7285L83.8998 16.7685C83.8331 16.2752 83.6998 15.8685 83.4998 15.5485C83.2998 15.2152 82.9731 15.0485 82.5198 15.0485H76.7998V14.2085H83.8798L83.9598 14.7685L84.1798 16.7285ZM82.4998 26.1085C82.9665 26.1085 83.3398 25.9418 83.6198 25.6085C83.8998 25.2618 84.1065 24.8285 84.2398 24.3085L84.5398 24.3885L83.9798 26.3885L83.8198 26.9485H76.8598V26.1085H82.4998ZM74.3398 26.6485C74.7265 26.6485 75.0465 26.5552 75.2998 26.3685C75.5665 26.1818 75.6998 25.8552 75.6998 25.3885V15.7685C75.6998 15.2885 75.5665 14.9618 75.2998 14.7885C75.0465 14.6018 74.7265 14.5085 74.3398 14.5085V14.2085H75.9198H77.0798V26.9485H75.9198H74.3398V26.6485ZM81.2998 19.7485C81.7798 19.7485 82.1065 19.6485 82.2798 19.4485C82.4665 19.2485 82.5598 19.0018 82.5598 18.7085H82.8598V19.9085V20.3685V21.5885H82.5598C82.5598 21.2952 82.4665 21.0485 82.2798 20.8485C82.1065 20.6485 81.7798 20.5485 81.2998 20.5485H76.7998V19.7485H81.2998ZM91.9242 19.9085C92.9242 20.2818 93.6642 20.7352 94.1442 21.2685C94.6242 21.7885 94.8642 22.5018 94.8642 23.4085C94.8642 24.7685 94.4575 25.7218 93.6442 26.2685C92.8309 26.8152 91.7575 27.0885 90.4242 27.0885C89.3042 27.0885 88.3575 26.8952 87.5842 26.5085C86.8242 26.1218 86.2509 25.6352 85.8642 25.0485V21.1485H86.1042C86.1442 22.1885 86.3375 23.1018 86.6842 23.8885C87.0442 24.6752 87.5509 25.2885 88.2042 25.7285C88.8575 26.1552 89.6175 26.3685 90.4842 26.3685C91.4309 26.3685 92.1642 26.1352 92.6842 25.6685C93.2042 25.1885 93.4642 24.5685 93.4642 23.8085C93.4642 23.2085 93.2975 22.7018 92.9642 22.2885C92.6442 21.8618 92.1309 21.5218 91.4242 21.2685L88.5642 20.2485C87.7775 19.9818 87.1842 19.6152 86.7842 19.1485C86.3842 18.6818 86.1842 18.0552 86.1842 17.2685C86.1842 16.6952 86.3375 16.1618 86.6442 15.6685C86.9642 15.1752 87.4442 14.7752 88.0842 14.4685C88.7375 14.1618 89.5375 14.0085 90.4842 14.0085C91.2575 14.0085 91.9709 14.1218 92.6242 14.3485C93.2909 14.5752 93.8642 14.9085 94.3442 15.3485L94.5042 18.7885H94.2442C94.0442 17.4152 93.6375 16.3885 93.0242 15.7085C92.4242 15.0285 91.5775 14.6885 90.4842 14.6885C89.5375 14.6885 88.8109 14.9085 88.3042 15.3485C87.8109 15.7752 87.5642 16.3285 87.5642 17.0085C87.5642 17.4352 87.6842 17.8085 87.9242 18.1285C88.1642 18.4485 88.5509 18.7018 89.0842 18.8885L91.9242 19.9085ZM101.501 25.3885C101.501 25.8552 101.635 26.1818 101.901 26.3685C102.168 26.5552 102.508 26.6485 102.921 26.6485V26.9485H101.281H100.361H98.7014V26.6485C99.1147 26.6485 99.4547 26.5552 99.7214 26.3685C99.988 26.1818 100.121 25.8552 100.121 25.3885V14.2085H101.501V25.3885ZM95.5814 14.0285C95.728 14.0952 95.9147 14.1418 96.1414 14.1685C96.3814 14.1952 96.6814 14.2085 97.0414 14.2085H104.601C104.961 14.2085 105.255 14.1952 105.481 14.1685C105.708 14.1418 105.901 14.0952 106.061 14.0285L106.141 14.7485L106.361 16.8285L106.061 16.8685C106.008 16.3485 105.868 15.9152 105.641 15.5685C105.428 15.2218 105.081 15.0485 104.601 15.0485H97.0214C96.5547 15.0485 96.208 15.2218 95.9814 15.5685C95.7547 15.9018 95.6147 16.3285 95.5614 16.8485L95.2614 16.8285L95.5014 14.7485L95.5814 14.0285ZM112.322 14.0085C113.549 14.0085 114.582 14.2885 115.422 14.8485C116.275 15.3952 116.915 16.1552 117.342 17.1285C117.769 18.0885 117.982 19.1952 117.982 20.4485C117.982 21.7018 117.769 22.8352 117.342 23.8485C116.915 24.8485 116.275 25.6418 115.422 26.2285C114.582 26.8018 113.549 27.0885 112.322 27.0885C111.095 27.0885 110.055 26.8018 109.202 26.2285C108.362 25.6418 107.729 24.8485 107.302 23.8485C106.875 22.8352 106.662 21.7018 106.662 20.4485C106.662 19.1952 106.869 18.0885 107.282 17.1285C107.709 16.1552 108.349 15.3952 109.202 14.8485C110.055 14.2885 111.095 14.0085 112.322 14.0085ZM112.322 26.3885C113.202 26.3885 113.955 26.1352 114.582 25.6285C115.222 25.1085 115.702 24.3952 116.022 23.4885C116.342 22.5818 116.502 21.5685 116.502 20.4485C116.502 19.3285 116.342 18.3352 116.022 17.4685C115.702 16.6018 115.222 15.9285 114.582 15.4485C113.955 14.9552 113.202 14.7085 112.322 14.7085C111.429 14.7085 110.669 14.9552 110.042 15.4485C109.415 15.9285 108.935 16.6018 108.602 17.4685C108.282 18.3352 108.122 19.3285 108.122 20.4485C108.122 21.5685 108.282 22.5818 108.602 23.4885C108.935 24.3952 109.415 25.1085 110.042 25.6285C110.669 26.1352 111.429 26.3885 112.322 26.3885ZM125.79 26.9485V26.6485C126.176 26.6485 126.483 26.6285 126.71 26.5885C126.936 26.5352 127.07 26.4418 127.11 26.3085C127.163 26.1752 127.09 25.9818 126.89 25.7285L121.35 18.8685V17.3685H121.67C121.67 18.0618 121.883 18.6018 122.31 18.9885C122.75 19.3618 123.283 19.5485 123.91 19.5485C124.71 19.5485 125.323 19.3285 125.75 18.8885C126.176 18.4485 126.39 17.9152 126.39 17.2885C126.39 16.5552 126.176 16.0018 125.75 15.6285C125.323 15.2418 124.603 15.0485 123.59 15.0485H121.47V14.2085H124.05C125.236 14.2085 126.163 14.4752 126.83 15.0085C127.496 15.5285 127.83 16.2618 127.83 17.2085C127.83 18.1152 127.51 18.8418 126.87 19.3885C126.23 19.9352 125.363 20.2085 124.27 20.2085C123.883 20.2085 123.53 20.1485 123.21 20.0285L123.19 20.0885C123.643 20.3818 124.09 20.7218 124.53 21.1085C124.983 21.4818 125.41 21.9085 125.81 22.3885L129.39 26.6885V26.9485H128.21H125.79ZM118.93 26.9485V26.6485C119.316 26.6485 119.636 26.5552 119.89 26.3685C120.156 26.1818 120.29 25.8552 120.29 25.3885V15.7685C120.29 15.2885 120.156 14.9618 119.89 14.7885C119.636 14.6018 119.316 14.5085 118.93 14.5085V14.2085H120.51H121.67V25.3885C121.67 25.8552 121.796 26.1818 122.05 26.3685C122.303 26.5552 122.623 26.6485 123.01 26.6485V26.9485H121.45H120.51H118.93ZM140.752 19.9085C141.752 20.2818 142.492 20.7352 142.972 21.2685C143.452 21.7885 143.692 22.5018 143.692 23.4085C143.692 24.7685 143.286 25.7218 142.472 26.2685C141.659 26.8152 140.586 27.0885 139.252 27.0885C138.132 27.0885 137.186 26.8952 136.412 26.5085C135.652 26.1218 135.079 25.6352 134.692 25.0485V21.1485H134.932C134.972 22.1885 135.166 23.1018 135.512 23.8885C135.872 24.6752 136.379 25.2885 137.032 25.7285C137.686 26.1552 138.446 26.3685 139.312 26.3685C140.259 26.3685 140.992 26.1352 141.512 25.6685C142.032 25.1885 142.292 24.5685 142.292 23.8085C142.292 23.2085 142.126 22.7018 141.792 22.2885C141.472 21.8618 140.959 21.5218 140.252 21.2685L137.392 20.2485C136.606 19.9818 136.012 19.6152 135.612 19.1485C135.212 18.6818 135.012 18.0552 135.012 17.2685C135.012 16.6952 135.166 16.1618 135.472 15.6685C135.792 15.1752 136.272 14.7752 136.912 14.4685C137.566 14.1618 138.366 14.0085 139.312 14.0085C140.086 14.0085 140.799 14.1218 141.452 14.3485C142.119 14.5752 142.692 14.9085 143.172 15.3485L143.332 18.7885H143.072C142.872 17.4152 142.466 16.3885 141.852 15.7085C141.252 15.0285 140.406 14.6885 139.312 14.6885C138.366 14.6885 137.639 14.9085 137.132 15.3485C136.639 15.7752 136.392 16.3285 136.392 17.0085C136.392 17.4352 136.512 17.8085 136.752 18.1285C136.992 18.4485 137.379 18.7018 137.912 18.8885L140.752 19.9085ZM146.989 25.4485C146.856 25.9018 146.923 26.2152 147.189 26.3885C147.456 26.5618 147.856 26.6485 148.389 26.6485V26.9485H146.229H145.789H144.209V26.6485C144.609 26.6485 144.976 26.5618 145.309 26.3885C145.643 26.2018 145.876 25.8885 146.009 25.4485L148.909 15.7085C149.043 15.2418 148.929 14.9285 148.569 14.7685C148.223 14.5952 147.736 14.5085 147.109 14.5085V14.2085H149.709H151.149L154.47 25.4485C154.603 25.8885 154.829 26.2018 155.149 26.3885C155.483 26.5618 155.85 26.6485 156.249 26.6485V26.9485H154.689H153.829H151.65V26.6485C152.183 26.6485 152.589 26.5618 152.869 26.3885C153.149 26.2152 153.223 25.9018 153.089 25.4485L149.849 14.4885H150.229L146.989 25.4485ZM153.31 22.1685V23.0085H147.229V22.1685H153.31ZM158.63 25.4485C158.497 25.9018 158.563 26.2152 158.83 26.3885C159.097 26.5618 159.497 26.6485 160.03 26.6485V26.9485H157.87H157.43H155.85V26.6485C156.25 26.6485 156.617 26.5618 156.95 26.3885C157.283 26.2018 157.517 25.8885 157.65 25.4485L160.55 15.7085C160.683 15.2418 160.57 14.9285 160.21 14.7685C159.863 14.5952 159.377 14.5085 158.75 14.5085V14.2085H161.35H162.79L166.11 25.4485C166.243 25.8885 166.47 26.2018 166.79 26.3885C167.123 26.5618 167.49 26.6485 167.89 26.6485V26.9485H166.33H165.47H163.29V26.6485C163.823 26.6485 164.23 26.5618 164.51 26.3885C164.79 26.2152 164.863 25.9018 164.73 25.4485L161.49 14.4885H161.87L158.63 25.4485ZM164.95 22.1685V23.0085H158.87V22.1685H164.95ZM175.36 26.9485V26.6485C175.747 26.6485 176.053 26.6285 176.28 26.5885C176.507 26.5352 176.64 26.4418 176.68 26.3085C176.733 26.1752 176.66 25.9818 176.46 25.7285L170.92 18.8685V17.3685H171.24C171.24 18.0618 171.453 18.6018 171.88 18.9885C172.32 19.3618 172.853 19.5485 173.48 19.5485C174.28 19.5485 174.893 19.3285 175.32 18.8885C175.747 18.4485 175.96 17.9152 175.96 17.2885C175.96 16.5552 175.747 16.0018 175.32 15.6285C174.893 15.2418 174.173 15.0485 173.16 15.0485H171.04V14.2085H173.62C174.807 14.2085 175.733 14.4752 176.4 15.0085C177.067 15.5285 177.4 16.2618 177.4 17.2085C177.4 18.1152 177.08 18.8418 176.44 19.3885C175.8 19.9352 174.933 20.2085 173.84 20.2085C173.453 20.2085 173.1 20.1485 172.78 20.0285L172.76 20.0885C173.213 20.3818 173.66 20.7218 174.1 21.1085C174.553 21.4818 174.98 21.9085 175.38 22.3885L178.96 26.6885V26.9485H177.78H175.36ZM168.5 26.9485V26.6485C168.887 26.6485 169.207 26.5552 169.46 26.3685C169.727 26.1818 169.86 25.8552 169.86 25.3885V15.7685C169.86 15.2885 169.727 14.9618 169.46 14.7885C169.207 14.6018 168.887 14.5085 168.5 14.5085V14.2085H170.08H171.24V25.3885C171.24 25.8552 171.367 26.1818 171.62 26.3685C171.873 26.5552 172.193 26.6485 172.58 26.6485V26.9485H171.02H170.08H168.5ZM184.958 25.3885C184.958 25.8552 185.092 26.1818 185.358 26.3685C185.625 26.5552 185.965 26.6485 186.378 26.6485V26.9485H184.738H183.818H182.158V26.6485C182.572 26.6485 182.912 26.5552 183.178 26.3685C183.445 26.1818 183.578 25.8552 183.578 25.3885V14.2085H184.958V25.3885ZM179.038 14.0285C179.185 14.0952 179.372 14.1418 179.598 14.1685C179.838 14.1952 180.138 14.2085 180.498 14.2085H188.058C188.418 14.2085 188.712 14.1952 188.938 14.1685C189.165 14.1418 189.358 14.0952 189.518 14.0285L189.598 14.7485L189.818 16.8285L189.518 16.8685C189.465 16.3485 189.325 15.9152 189.098 15.5685C188.885 15.2218 188.538 15.0485 188.058 15.0485H180.478C180.012 15.0485 179.665 15.2218 179.438 15.5685C179.212 15.9018 179.072 16.3285 179.018 16.8485L178.718 16.8285L178.958 14.7485L179.038 14.0285ZM193.31 25.3885C193.31 25.8552 193.437 26.1818 193.69 26.3685C193.944 26.5552 194.264 26.6485 194.65 26.6485V26.9485H193.09H192.15H190.57V26.6485C190.957 26.6485 191.277 26.5552 191.53 26.3685C191.797 26.1818 191.93 25.8552 191.93 25.3885V15.7685C191.93 15.2885 191.797 14.9618 191.53 14.7885C191.277 14.6018 190.957 14.5085 190.57 14.5085V14.2085H192.15H193.09H194.65V14.5085C194.264 14.5085 193.944 14.6018 193.69 14.7885C193.437 14.9618 193.31 15.2885 193.31 15.7685V25.3885ZM200.87 25.3885C200.87 25.8552 200.997 26.1818 201.25 26.3685C201.504 26.5552 201.824 26.6485 202.21 26.6485V26.9485H200.65H199.71H198.13V26.6485C198.517 26.6485 198.837 26.5552 199.09 26.3685C199.357 26.1818 199.49 25.8552 199.49 25.3885V15.7685C199.49 15.2885 199.357 14.9618 199.09 14.7885C198.837 14.6018 198.517 14.5085 198.13 14.5085V14.2085H199.71H200.65H202.21V14.5085C201.824 14.5085 201.504 14.6018 201.25 14.7885C200.997 14.9618 200.87 15.2885 200.87 15.7685V25.3885ZM199.79 19.4285V20.2685H193.07V19.4285H199.79ZM206.884 25.3885C206.884 25.8552 207.011 26.1818 207.264 26.3685C207.531 26.5552 207.871 26.6485 208.284 26.6485V26.9485H206.644H205.724H204.064V26.6485C204.477 26.6485 204.817 26.5552 205.084 26.3685C205.364 26.1818 205.504 25.8552 205.504 25.3885V15.7685C205.504 15.2885 205.364 14.9618 205.084 14.7885C204.817 14.6018 204.477 14.5085 204.064 14.5085V14.2085H205.724H206.644H208.284V14.5085C207.871 14.5085 207.531 14.6018 207.264 14.7885C207.011 14.9618 206.884 15.2885 206.884 15.7685V25.3885Z" fill="white"/>
</svg>
